<svg width="584.5062866210938px" height="122px" xmlns="http://www.w3.org/2000/svg" viewBox="-42.253143310546875 14 584.5062866210938 122" style="background: none;" preserveAspectRatio="xMidYMid"><defs><filter id="editing-vr"><feFlood flood-color="#cfd7cc" flood-opacity="0.7" result="c1"></feFlood><feFlood flood-color="#f8f9f8" flood-opacity="0.7" result="c3"></feFlood><feComposite operator="in" in="c1" in2="SourceAlpha" result="text-c1"></feComposite><feComposite operator="in" in="c3" in2="SourceAlpha" result="text-c3"></feComposite><feOffset in="text-c1" dx="5" dy="-1" result="text1"></feOffset><feOffset in="text-c3" dx="-5" dy="1" result="text3"></feOffset><feBlend in="SourceGraphic" in2="text1" mode="multiply" result="text4"></feBlend><feBlend in="text4" in2="text3" mode="multiply"></feBlend></filter></defs><g filter="url(#editing-vr)"><g transform="translate(44.563807398080826, 98.71000099182129)"><path d="M13.41 0.64L13.41 0.64L13.41 0.64Q10.37 0 8.80-0.29L8.80-0.29L8.80-0.29Q7.23-0.58 5.41-0.58L5.41-0.58L5.41-0.58Q3.58-0.58 1.79 0.06L1.79 0.06L1.79 0.06Q0.83-0.51 0.22-1.66L0.22-1.66L0.22-1.66Q-0.38-2.82-0.38-4.61L-0.38-4.61L-0.38-4.61Q-0.38-8.38 3.46-11.26L3.46-11.26L19.71-22.98L19.71-22.98Q15.17-24.26 11.04-24.26L11.04-24.26L11.04-24.26Q6.91-24.26 5.44-21.44L5.44-21.44L5.44-21.44Q3.26-24 3.26-28.03L3.26-28.03L3.26-28.03Q3.26-30.72 5.22-32.48L5.22-32.48L5.22-32.48Q7.17-34.24 11.26-34.24L11.26-34.24L11.26-34.24Q13.57-34.24 15.65-33.95L15.65-33.95L15.65-33.95Q17.73-33.66 19.58-33.41L19.58-33.41L23.04-32.90L23.04-32.90Q24.70-32.64 26.40-32.64L26.40-32.64L26.40-32.64Q28.10-32.64 29.38-33.34L29.38-33.34L29.38-33.34Q31.04-31.81 31.04-29.70L31.04-29.70L31.04-29.70Q31.04-26.37 26.94-22.91L26.94-22.91L10.75-10.82L10.75-10.82Q15.74-9.34 18.30-9.34L18.30-9.34L18.30-9.34Q23.68-9.34 25.98-11.90L25.98-11.90L25.98-11.90Q27.78-9.86 27.78-6.30L27.78-6.30L27.78-6.30Q27.78-2.75 25.47-0.74L25.47-0.74L25.47-0.74Q23.17 1.28 19.01 1.28L19.01 1.28L19.01 1.28Q16.45 1.28 13.41 0.64ZM59.26-10.82L59.26-10.82L59.26-10.82Q60.86-9.73 60.86-7.33L60.86-7.33L60.86-7.33Q60.86-4.93 59.65-3.39L59.65-3.39L59.65-3.39Q58.43-1.86 56.45-0.83L56.45-0.83L56.45-0.83Q52.35 1.28 47.94 1.28L47.94 1.28L47.94 1.28Q43.52 1.28 40.93 0.32L40.93 0.32L40.93 0.32Q38.34-0.64 36.61-2.43L36.61-2.43L36.61-2.43Q33.22-5.82 33.22-12.03L33.22-12.03L33.22-12.03Q33.22-21.70 38.46-27.58L38.46-27.58L38.46-27.58Q44.10-33.92 53.89-33.92L53.89-33.92L53.89-33.92Q59.97-33.92 62.98-31.36L62.98-31.36L62.98-31.36Q65.22-29.44 65.22-26.30L65.22-26.30L65.22-26.30Q65.22-15.04 45.76-15.04L45.76-15.04L45.76-15.04Q45.50-13.38 45.50-11.97L45.50-11.97L45.50-11.97Q45.50-9.02 46.82-7.90L46.82-7.90L46.82-7.90Q48.13-6.78 50.56-6.78L50.56-6.78L50.56-6.78Q52.99-6.78 55.58-7.90L55.58-7.90L55.58-7.90Q58.18-9.02 59.26-10.82ZM46.21-17.79L46.21-17.79L46.21-17.79Q50.75-17.79 53.38-20.61L53.38-20.61L53.38-20.61Q56-23.30 56-27.58L56-27.58L56-27.58Q56-29.06 55.46-29.86L55.46-29.86L55.46-29.86Q54.91-30.66 53.82-30.66L53.82-30.66L53.82-30.66Q52.74-30.66 51.81-30.24L51.81-30.24L51.81-30.24Q50.88-29.82 49.92-28.42L49.92-28.42L49.92-28.42Q47.55-25.22 46.21-17.79ZM87.42-17.98L87.42-17.98L87.42-17.98Q89.73-22.08 89.73-26.24L89.73-26.24L89.73-26.24Q89.73-28.99 87.74-28.99L87.74-28.99L87.74-28.99Q86.21-28.99 84.61-26.37L84.61-26.37L84.61-26.37Q82.94-23.74 82.43-20.35L82.43-20.35L79.10 0L65.86 1.28L72.38-32.64L82.94-33.92L81.79-27.46L81.79-27.46Q84.93-33.92 91.97-33.92L91.97-33.92L91.97-33.92Q95.68-33.92 97.70-32L97.70-32L97.70-32Q99.71-30.08 99.71-26.14L99.71-26.14L99.71-26.14Q99.71-22.21 97.12-19.71L97.12-19.71L97.12-19.71Q94.53-17.22 90.11-17.22L90.11-17.22L90.11-17.22Q88.19-17.22 87.42-17.98ZM101.76-15.23L101.76-15.23L101.76-15.23Q101.76-28.16 107.84-35.84L107.84-35.84L107.84-35.84Q113.92-43.52 124.35-43.52L124.35-43.52L124.35-43.52Q129.92-43.52 133.12-39.36L133.12-39.36L133.12-39.36Q136.32-35.20 136.32-28.26L136.32-28.26L136.32-28.26Q136.32-21.31 134.75-15.90L134.75-15.90L134.75-15.90Q133.18-10.50 130.37-6.66L130.37-6.66L130.37-6.66Q124.48 1.34 114.69 1.34L114.69 1.34L114.69 1.34Q108.10 1.34 104.93-2.72L104.93-2.72L104.93-2.72Q101.76-6.78 101.76-15.23ZM113.09-10.88L113.09-10.88L113.09-10.88Q113.09-4.42 115.20-4.42L115.20-4.42L115.20-4.42Q117.12-4.42 118.88-6.66L118.88-6.66L118.88-6.66Q120.64-8.90 122.05-12.67L122.05-12.67L122.05-12.67Q125.06-20.93 125.06-31.17L125.06-31.17L125.06-31.17Q125.06-34.62 124.51-36.19L124.51-36.19L124.51-36.19Q123.97-37.76 122.53-37.76L122.53-37.76L122.53-37.76Q121.09-37.76 119.39-35.26L119.39-35.26L119.39-35.26Q117.70-32.77 116.29-28.86L116.29-28.86L116.29-28.86Q113.09-19.97 113.09-10.88ZM170.82-26.62L170.82-26.62L170.82-26.62Q170.82-23.94 168.58-22.27L168.58-22.27L168.58-22.27Q166.34-20.61 162.69-20.61L162.69-20.61L162.69-20.61Q161.15-20.61 160.26-21.06L160.26-21.06L160.26-21.06Q160.96-22.72 161.18-24.80L161.18-24.80L161.18-24.80Q161.41-26.88 161.41-27.46L161.41-27.46L161.41-27.46Q161.41-30.14 159.55-30.14L159.55-30.14L159.55-30.14Q158.27-30.14 156.83-28.54L156.83-28.54L156.83-28.54Q155.39-26.94 154.18-24.45L154.18-24.45L154.18-24.45Q151.49-18.69 151.49-12.86L151.49-12.86L151.49-12.86Q151.49-9.66 152.70-8.22L152.70-8.22L152.70-8.22Q153.92-6.78 156.61-6.78L156.61-6.78L156.61-6.78Q160.32-6.78 163.26-9.86L163.26-9.86L163.26-9.86Q164.10-10.82 164.54-11.90L164.54-11.90L164.54-11.90Q166.98-10.62 166.98-7.10L166.98-7.10L166.98-7.10Q166.98-3.52 163.01-1.15L163.01-1.15L163.01-1.15Q158.91 1.28 152.38 1.28L152.38 1.28L152.38 1.28Q139.39 1.28 139.39-12.48L139.39-12.48L139.39-12.48Q139.39-22.53 145.09-28.29L145.09-28.29L145.09-28.29Q150.59-33.92 160.70-33.92L160.70-33.92L160.70-33.92Q170.82-33.92 170.82-26.62ZM186.50 1.28L186.50 1.28L186.50 1.28Q172.42 1.28 172.42-11.97L172.42-11.97L172.42-11.97Q172.42-21.38 177.60-27.46L177.60-27.46L177.60-27.46Q183.10-33.92 192.64-33.92L192.64-33.92L192.64-33.92Q199.55-33.92 203.07-30.72L203.07-30.72L203.07-30.72Q206.59-27.52 206.59-20.80L206.59-20.80L206.59-20.80Q206.59-10.56 201.09-4.61L201.09-4.61L201.09-4.61Q195.71 1.28 186.50 1.28ZM188.16-26.56L188.16-26.56L188.16-26.56Q187.39-24.83 186.78-22.24L186.78-22.24L186.78-22.24Q186.18-19.65 185.41-15.55L185.41-15.55L185.41-15.55Q184.64-11.46 184.64-6.40L184.64-6.40L184.64-6.40Q184.64-4.74 185.18-3.65L185.18-3.65L185.18-3.65Q185.73-2.56 187.20-2.56L187.20-2.56L187.20-2.56Q188.67-2.56 189.60-3.26L189.60-3.26L189.60-3.26Q190.53-3.97 191.23-5.63L191.23-5.63L191.23-5.63Q192.51-8.58 193.54-14.05L193.54-14.05L193.54-14.05Q194.56-19.52 194.66-21.89L194.66-21.89L194.66-21.89Q194.75-24.26 194.75-26.02L194.75-26.02L194.75-26.02Q194.75-27.78 194.24-28.93L194.24-28.93L194.24-28.93Q193.73-30.08 192.29-30.08L192.29-30.08L192.29-30.08Q190.85-30.08 189.89-29.18L189.89-29.18L189.89-29.18Q188.93-28.29 188.16-26.56ZM224.32 1.28L224.32 1.28L224.32 1.28Q210.24 1.28 210.24-11.97L210.24-11.97L210.24-11.97Q210.24-21.38 215.42-27.46L215.42-27.46L215.42-27.46Q220.93-33.92 230.46-33.92L230.46-33.92L230.46-33.92Q237.38-33.92 240.90-30.72L240.90-30.72L240.90-30.72Q244.42-27.52 244.42-20.80L244.42-20.80L244.42-20.80Q244.42-10.56 238.91-4.61L238.91-4.61L238.91-4.61Q233.54 1.28 224.32 1.28ZM225.98-26.56L225.98-26.56L225.98-26.56Q225.22-24.83 224.61-22.24L224.61-22.24L224.61-22.24Q224.00-19.65 223.23-15.55L223.23-15.55L223.23-15.55Q222.46-11.46 222.46-6.40L222.46-6.40L222.46-6.40Q222.46-4.74 223.01-3.65L223.01-3.65L223.01-3.65Q223.55-2.56 225.02-2.56L225.02-2.56L225.02-2.56Q226.50-2.56 227.42-3.26L227.42-3.26L227.42-3.26Q228.35-3.97 229.06-5.63L229.06-5.63L229.06-5.63Q230.34-8.58 231.36-14.05L231.36-14.05L231.36-14.05Q232.38-19.52 232.48-21.89L232.48-21.89L232.48-21.89Q232.58-24.26 232.58-26.02L232.58-26.02L232.58-26.02Q232.58-27.78 232.06-28.93L232.06-28.93L232.06-28.93Q231.55-30.08 230.11-30.08L230.11-30.08L230.11-30.08Q228.67-30.08 227.71-29.18L227.71-29.18L227.71-29.18Q226.75-28.29 225.98-26.56ZM263.49-3.52L263.49-3.52L263.49-3.52Q261.50 1.28 255.17 1.28L255.17 1.28L255.17 1.28Q251.97 1.28 249.92-0.96L249.92-0.96L249.92-0.96Q248.26-2.82 248.26-4.93L248.26-4.93L248.26-4.93Q248.26-9.73 250.50-20.22L250.50-20.22L255.17-44.80L268.16-46.08L261.95-13.70L261.95-13.70Q260.86-8.96 260.86-7.30L260.86-7.30L260.86-7.30Q260.86-3.65 263.49-3.52ZM267.01-3.78L267.01-3.78L267.01-3.78Q267.01-6.21 268.90-7.55L268.90-7.55L268.90-7.55Q270.78-8.90 273.47-8.90L273.47-8.90L273.47-8.90Q276.16-8.90 277.79-7.55L277.79-7.55L277.79-7.55Q279.42-6.21 279.42-3.78L279.42-3.78L279.42-3.78Q279.42-1.34 277.60-0.03L277.60-0.03L277.60-0.03Q275.78 1.28 273.09 1.28L273.09 1.28L273.09 1.28Q270.40 1.28 268.70-0.03L268.70-0.03L268.70-0.03Q267.01-1.34 267.01-3.78ZM316.80-26.62L316.80-26.62L316.80-26.62Q316.80-23.94 314.56-22.27L314.56-22.27L314.56-22.27Q312.32-20.61 308.67-20.61L308.67-20.61L308.67-20.61Q307.14-20.61 306.24-21.06L306.24-21.06L306.24-21.06Q306.94-22.72 307.17-24.80L307.17-24.80L307.17-24.80Q307.39-26.88 307.39-27.46L307.39-27.46L307.39-27.46Q307.39-30.14 305.54-30.14L305.54-30.14L305.54-30.14Q304.26-30.14 302.82-28.54L302.82-28.54L302.82-28.54Q301.38-26.94 300.16-24.45L300.16-24.45L300.16-24.45Q297.47-18.69 297.47-12.86L297.47-12.86L297.47-12.86Q297.47-9.66 298.69-8.22L298.69-8.22L298.69-8.22Q299.90-6.78 302.59-6.78L302.59-6.78L302.59-6.78Q306.30-6.78 309.25-9.86L309.25-9.86L309.25-9.86Q310.08-10.82 310.53-11.90L310.53-11.90L310.53-11.90Q312.96-10.62 312.96-7.10L312.96-7.10L312.96-7.10Q312.96-3.52 308.99-1.15L308.99-1.15L308.99-1.15Q304.90 1.28 298.37 1.28L298.37 1.28L298.37 1.28Q285.38 1.28 285.38-12.48L285.38-12.48L285.38-12.48Q285.38-22.53 291.07-28.29L291.07-28.29L291.07-28.29Q296.58-33.92 306.69-33.92L306.69-33.92L306.69-33.92Q316.80-33.92 316.80-26.62ZM332.48 1.28L332.48 1.28L332.48 1.28Q318.40 1.28 318.40-11.97L318.40-11.97L318.40-11.97Q318.40-21.38 323.58-27.46L323.58-27.46L323.58-27.46Q329.09-33.92 338.62-33.92L338.62-33.92L338.62-33.92Q345.54-33.92 349.06-30.72L349.06-30.72L349.06-30.72Q352.58-27.52 352.58-20.80L352.58-20.80L352.58-20.80Q352.58-10.56 347.07-4.61L347.07-4.61L347.07-4.61Q341.70 1.28 332.48 1.28ZM334.14-26.56L334.14-26.56L334.14-26.56Q333.38-24.83 332.77-22.24L332.77-22.24L332.77-22.24Q332.16-19.65 331.39-15.55L331.39-15.55L331.39-15.55Q330.62-11.46 330.62-6.40L330.62-6.40L330.62-6.40Q330.62-4.74 331.17-3.65L331.17-3.65L331.17-3.65Q331.71-2.56 333.18-2.56L333.18-2.56L333.18-2.56Q334.66-2.56 335.58-3.26L335.58-3.26L335.58-3.26Q336.51-3.97 337.22-5.63L337.22-5.63L337.22-5.63Q338.50-8.58 339.52-14.05L339.52-14.05L339.52-14.05Q340.54-19.52 340.64-21.89L340.64-21.89L340.64-21.89Q340.74-24.26 340.74-26.02L340.74-26.02L340.74-26.02Q340.74-27.78 340.22-28.93L340.22-28.93L340.22-28.93Q339.71-30.08 338.27-30.08L338.27-30.08L338.27-30.08Q336.83-30.08 335.87-29.18L335.87-29.18L335.87-29.18Q334.91-28.29 334.14-26.56ZM402.43 1.28L402.43 1.28L402.43 1.28Q394.69 1.28 394.69-4.74L394.69-4.74L394.69-4.74Q394.69-7.36 395.81-12.45L395.81-12.45L395.81-12.45Q396.93-17.54 397.31-19.58L397.31-19.58L397.31-19.58Q398.21-24.26 398.21-25.73L398.21-25.73L398.21-25.73Q398.21-28.99 395.78-28.99L395.78-28.99L395.78-28.99Q394.18-28.99 392.64-26.78L392.64-26.78L392.64-26.78Q391.10-24.58 390.40-20.16L390.40-20.16L386.43 0L373.95 1.28L377.41-16.13L377.41-16.13Q377.98-19.01 378.50-22.27L378.50-22.27L378.50-22.27Q379.01-25.54 379.01-26.05L379.01-26.05L379.01-26.05Q379.01-28.99 376.83-28.99L376.83-28.99L376.83-28.99Q375.36-28.99 373.76-26.82L373.76-26.82L373.76-26.82Q372.16-24.64 371.26-20.16L371.26-20.16L367.36 0L354.75 1.28L361.47-32.64L371.90-33.92L370.82-27.46L370.82-27.46Q372.48-30.91 375.55-32.42L375.55-32.42L375.55-32.42Q378.62-33.92 383.42-33.92L383.42-33.92L383.42-33.92Q386.18-33.92 387.97-32.58L387.97-32.58L387.97-32.58Q389.76-31.23 390.34-29.06L390.34-29.06L390.34-29.06Q391.42-31.30 394.21-32.61L394.21-32.61L394.21-32.61Q396.99-33.92 400.42-33.92L400.42-33.92L400.42-33.92Q403.84-33.92 405.54-33.18L405.54-33.18L405.54-33.18Q407.23-32.45 408.26-31.23L408.26-31.23L408.26-31.23Q409.98-28.99 409.98-24.90L409.98-24.90L409.98-24.90Q409.98-20.86 408.26-12.48L408.26-12.48L408.26-12.48Q407.36-8.38 407.36-6.88L407.36-6.88L407.36-6.88Q407.36-5.38 408.22-4.48L408.22-4.48L408.22-4.48Q409.09-3.58 410.37-3.46L410.37-3.46L410.37-3.46Q409.73-1.28 407.52 0L407.52 0L407.52 0Q405.31 1.28 402.43 1.28Z" fill="#ffffff"></path></g></g><style>text {
  font-size: 64px;
  font-family: Arial Black;
  dominant-baseline: central;
  text-anchor: middle;
}</style></svg>