<svg width="544.9648071289063px" height="122px" xmlns="http://www.w3.org/2000/svg" viewBox="-22.482403564453136 14 544.9648071289063 122" style="background: rgba(145, 38, 35, 0);" preserveAspectRatio="xMidYMid"><defs><filter id="editing-hole" x="-100%" y="-100%" width="300%" height="300%"><feFlood flood-color="#a2b4bc" result="black"></feFlood><feMorphology operator="dilate" radius="2" in="SourceGraphic" result="erode"></feMorphology><feGaussianBlur in="erode" stdDeviation="4" result="blur"></feGaussianBlur><feOffset in="blur" dx="2" dy="2" result="offset"></feOffset><feComposite operator="atop" in="offset" in2="black" result="merge"></feComposite><feComposite operator="in" in="merge" in2="SourceGraphic" result="inner-shadow"></feComposite></filter></defs><g filter="url(#editing-hole)"><g transform="translate(59.61947736144066, 97.39999961853027)"><path d="M14.62 0.16L14.62 0.16L14.62 0.16Q11.20-0.45 9.41-0.70L9.41-0.70L9.41-0.70Q7.62-0.96 5.73-0.96L5.73-0.96L5.73-0.96Q3.84-0.96 2.88 0L2.88 0L2.88 0Q1.41-1.09 0.64-4.54L0.64-4.54L0.64-4.54Q0.38-5.50 0.38-7.10L0.38-7.10L0.38-7.10Q0.38-10.56 4.35-13.95L4.35-13.95L24.32-30.34L24.32-30.34Q16.06-31.68 12.74-31.68L12.74-31.68L12.74-31.68Q9.41-31.68 6.34-30.21L6.34-30.21L6.34-30.21Q4.61-33.02 4.61-36.29L4.61-36.29L4.61-36.29Q4.61-39.55 7.01-41.22L7.01-41.22L7.01-41.22Q9.41-42.88 13.44-42.88L13.44-42.88L13.44-42.88Q15.23-42.88 17.15-42.62L17.15-42.62L17.15-42.62Q19.07-42.37 20.99-42.11L20.99-42.11L24.77-41.54L24.77-41.54Q26.62-41.28 29.02-41.28L29.02-41.28L29.02-41.28Q31.42-41.28 34.11-41.92L34.11-41.92L34.11-41.92Q36.67-39.68 36.67-35.97L36.67-35.97L36.67-35.97Q36.67-31.49 33.60-29.06L33.60-29.06L11.84-11.65L11.84-11.65Q16.51-10.37 24.26-10.37L24.26-10.37L24.26-10.37Q28.10-10.37 30.53-12.29L30.53-12.29L30.53-12.29Q31.62-10.88 31.90-9.70L31.90-9.70L31.90-9.70Q32.19-8.51 32.19-6.82L32.19-6.82L32.19-6.82Q32.19-5.12 31.62-3.74L31.62-3.74L31.62-3.74Q31.04-2.37 29.82-1.34L29.82-1.34L29.82-1.34Q27.39 0.77 22.02 0.77L22.02 0.77L22.02 0.77Q18.05 0.77 14.62 0.16ZM66.11 1.28L66.11 1.28L66.11 1.28Q57.92 1.28 57.15-10.37L57.15-10.37L46.14-10.37L46.14-10.37Q44.86-7.42 43.97-4.86L43.97-4.86L42.30 0L33.34 0L53.50-42.24L67.26-42.24L69.95-11.14L69.95-11.14Q70.59-4.42 73.15-2.43L73.15-2.43L73.15-2.43Q71.30 1.28 66.11 1.28ZM51.65-23.17L48.13-15.04L56.96-15.04L56.19-31.49L56.19-33.22L51.65-23.17ZM109.57-13.25L109.57-13.25L109.57-13.25Q111.23-12.03 111.23-9.44L111.23-9.44L111.23-9.44Q111.23-6.85 110.11-5.02L110.11-5.02L110.11-5.02Q108.99-3.20 106.82-1.79L106.82-1.79L106.82-1.79Q102.14 1.22 93.98 1.22L93.98 1.22L93.98 1.22Q85.82 1.22 81.38-3.04L81.38-3.04L81.38-3.04Q76.93-7.30 76.93-14.85L76.93-14.85L76.93-14.85Q76.93-25.54 82.50-33.66L82.50-33.66L82.50-33.66Q86.72-39.68 94.27-42.24L94.27-42.24L94.27-42.24Q98.18-43.52 102.02-43.52L102.02-43.52L102.02-43.52Q105.86-43.52 108.22-43.01L108.22-43.01L108.22-43.01Q110.59-42.50 112.38-41.47L112.38-41.47L112.38-41.47Q116.29-39.23 116.29-35.65L116.29-35.65L116.29-35.65Q116.29-32.38 113.22-29.95L113.22-29.95L113.22-29.95Q110.40-27.78 108.10-27.78L108.10-27.78L108.10-27.78Q105.79-27.78 104.83-28.10L104.83-28.10L104.83-28.10Q105.09-30.40 105.09-31.90L105.09-31.90L105.09-31.90Q105.09-33.41 105.02-34.50L105.02-34.50L105.02-34.50Q104.96-35.58 104.64-36.61L104.64-36.61L104.64-36.61Q104-38.98 102.05-38.98L102.05-38.98L102.05-38.98Q100.10-38.98 98.14-37.15L98.14-37.15L98.14-37.15Q96.19-35.33 94.53-32.26L94.53-32.26L94.53-32.26Q90.75-25.28 90.75-17.02L90.75-17.02L90.75-17.02Q90.75-13.06 92.99-10.78L92.99-10.78L92.99-10.78Q95.23-8.51 100.03-8.51L100.03-8.51L100.03-8.51Q103.62-8.51 107.01-10.88L107.01-10.88L107.01-10.88Q108.48-11.90 109.57-13.25ZM140.42-4.80L140.42-4.80L140.42-4.80Q140.42-9.28 142.21-18.24L142.21-18.24L132.74-18.24L129.22 0L115.84 0L123.97-42.24L137.47-42.24L133.76-23.36L143.23-23.36L146.75-42.24L160.26-42.24L160.26-42.24Q159.36-37.50 158.21-32.19L158.21-32.19L156.03-21.76L156.03-21.76Q153.60-9.60 153.60-4.29L153.60-4.29L153.60-4.29Q153.60-2.11 154.30-0.90L154.30-0.90L154.30-0.90Q151.10 1.28 147.36 1.28L147.36 1.28L147.36 1.28Q143.62 1.28 142.02-0.51L142.02-0.51L142.02-0.51Q140.42-2.30 140.42-4.80ZM174.34-0.32L174.34-0.32L182.40-42.24L182.40-42.24Q189.95-42.88 194.82-42.88L194.82-42.88L194.82-42.88Q199.68-42.88 202.82-42.46L202.82-42.46L202.82-42.46Q205.95-42.05 208.06-40.96L208.06-40.96L208.06-40.96Q212.29-38.91 212.29-33.28L212.29-33.28L212.29-33.28Q212.29-30.02 209.47-27.26L209.47-27.26L209.47-27.26Q206.85-24.77 203.97-24.19L203.97-24.19L203.97-24.19Q207.04-23.68 209.22-21.38L209.22-21.38L209.22-21.38Q211.52-18.94 211.52-15.17L211.52-15.17L211.52-15.17Q211.52-7.87 206.08-3.62L206.08-3.62L206.08-3.62Q200.64 0.64 189.95 0.64L189.95 0.64L189.95 0.64Q182.59 0.64 174.34-0.32ZM191.74-20.61L188.54-4.03L188.54-4.03Q189.12-3.97 189.25-3.97L189.25-3.97L189.82-3.97L189.82-3.97Q195.07-3.97 197.31-7.42L197.31-7.42L197.31-7.42Q198.98-10.11 198.98-15.04L198.98-15.04L198.98-15.04Q198.98-17.66 197.28-19.07L197.28-19.07L197.28-19.07Q195.58-20.48 191.74-20.61L191.74-20.61ZM201.47-33.22L201.47-33.22L201.47-33.22Q201.47-38.53 196.35-38.53L196.35-38.53L195.78-38.53L195.78-38.53Q195.52-38.53 195.14-38.46L195.14-38.46L192.58-24.96L193.22-24.96L193.22-24.96Q201.47-25.15 201.47-33.22ZM243.52 1.28L243.52 1.28L243.52 1.28Q235.33 1.28 234.56-10.37L234.56-10.37L223.55-10.37L223.55-10.37Q222.27-7.42 221.38-4.86L221.38-4.86L219.71 0L210.75 0L230.91-42.24L244.67-42.24L247.36-11.14L247.36-11.14Q248-4.42 250.56-2.43L250.56-2.43L250.56-2.43Q248.70 1.28 243.52 1.28ZM229.06-23.17L225.54-15.04L234.37-15.04L233.60-31.49L233.60-33.22L229.06-23.17ZM267.52 0L253.57 0L261.70-42.24L275.78-42.24L267.52 0ZM303.94-9.86L303.94-9.86L303.94-9.86Q305.15-8.32 305.15-5.34L305.15-5.34L305.15-5.34Q305.15-2.37 302.88-0.54L302.88-0.54L302.88-0.54Q300.61 1.28 296.64 1.28L296.64 1.28L296.64 1.28Q294.34 1.28 290.75 0.77L290.75 0.77L290.75 0.77Q283.71-0.32 281.70-0.32L281.70-0.32L281.70-0.32Q279.68-0.32 278.85-0.22L278.85-0.22L278.85-0.22Q278.02-0.13 276.67 0L276.67 0L284.42-42.24L298.43-42.24L292.03-7.04L292.03-7.04Q292.86-6.91 293.63-6.91L293.63-6.91L295.23-6.91L295.23-6.91Q300.61-6.91 303.94-9.86ZM336.77-9.86L336.77-9.86L336.77-9.86Q337.98-8.32 337.98-5.82L337.98-5.82L337.98-5.82Q337.98-2.37 335.42-0.54L335.42-0.54L335.42-0.54Q332.86 1.28 328.83 1.28L328.83 1.28L328.83 1.28Q326.53 1.28 323.01 0.77L323.01 0.77L323.01 0.77Q316.10-0.32 313.98-0.32L313.98-0.32L313.98-0.32Q311.87-0.32 311.04-0.22L311.04-0.22L311.04-0.22Q310.21-0.13 308.86 0L308.86 0L316.74-42.24L344.32-42.24L344.32-42.24Q344.32-38.34 342.43-36.29L342.43-36.29L342.43-36.29Q340.54-34.24 336.83-34.24L336.83-34.24L336.83-34.24Q333.12-34.24 329.34-35.97L329.34-35.97L327.36-24.77L338.75-24.77L338.75-24.77Q338.75-21.38 337.09-19.49L337.09-19.49L337.09-19.49Q335.42-17.60 332.64-17.60L332.64-17.60L332.64-17.60Q329.86-17.60 328.13-18.24L328.13-18.24L328.13-18.24Q326.40-18.88 326.21-19.07L326.21-19.07L323.90-6.98L323.90-6.98Q325.44-6.78 328.32-6.78L328.32-6.78L328.32-6.78Q333.25-6.78 336.77-9.86ZM349.95 0L353.66-18.82L353.66-18.82Q351.81-36.16 345.28-39.87L345.28-39.87L345.28-39.87Q346.62-41.54 348.80-42.46L348.80-42.46L348.80-42.46Q350.98-43.39 353.60-43.39L353.60-43.39L353.60-43.39Q356.22-43.39 358.21-42.46L358.21-42.46L358.21-42.46Q360.19-41.54 361.47-39.55L361.47-39.55L361.47-39.55Q363.90-35.78 363.90-26.75L363.90-26.75L363.90-22.14L363.90-22.14Q367.74-33.41 371.58-38.27L371.58-38.27L371.58-38.27Q375.49-43.26 380.35-43.26L380.35-43.26L380.35-43.26Q382.27-43.26 383.55-42.27L383.55-42.27L383.55-42.27Q384.83-41.28 385.47-39.81L385.47-39.81L385.47-39.81Q380.54-37.63 375.81-31.36L375.81-31.36L375.81-31.36Q371.07-25.09 368-16.32L368-16.32L364.22 0L349.95 0Z" fill="#f0f5f6"></path></g></g><style>text {
  font-size: 64px;
  font-family: Arial Black;
  dominant-baseline: central;
  text-anchor: middle;
}</style></svg>