<svg version="1.1" id="Layer_1" xmlns="http://www.w3.org/2000/svg" xmlns:xlink="http://www.w3.org/1999/xlink" x="0px" y="0px"
	 width="100%" viewBox="0 0 1000 1000" enable-background="new 0 0 1000 1000" xml:space="preserve">
<path fill="#121944" opacity="1.000000" stroke="none" 
	d="
M913.000000,1001.000000 
	C608.666687,1001.000000 304.833344,1001.000000 1.000000,1001.000000 
	C1.000000,667.666687 1.000000,334.333344 1.000000,1.000000 
	C334.333344,1.000000 667.666687,1.000000 1001.000000,1.000000 
	C1001.000000,334.333344 1001.000000,667.666687 1001.000000,1001.000000 
	C971.833313,1001.000000 942.666687,1001.000000 913.000000,1001.000000 
M759.945190,563.950867 
	C759.945190,563.950867 760.293091,564.287231 760.302551,565.153748 
	C760.302551,567.710754 760.302551,570.267700 760.302551,572.710449 
	C763.680725,572.710449 766.399231,572.710449 769.379456,572.710449 
	C769.195618,569.604004 769.031372,566.828430 769.627502,563.940552 
	C769.880310,563.899048 770.133118,563.857544 771.197388,563.601807 
	C773.608398,563.601807 776.019409,563.601807 778.516602,563.601807 
	C778.516602,560.330933 778.516602,557.780518 778.516602,554.940918 
	C775.497742,554.940918 772.740051,554.940918 769.732788,554.561218 
	C769.535767,554.324097 769.298157,554.139160 769.209229,553.097107 
	C769.209229,550.517700 769.209229,547.938293 769.209229,545.227783 
	C766.082581,545.227783 763.376526,545.227783 760.115234,545.227783 
	C760.115234,548.227417 760.115234,550.979614 760.025269,554.439514 
	C759.997620,554.675720 759.970032,554.911865 759.051819,554.910583 
	C756.467590,554.910583 753.883362,554.910583 751.349548,554.910583 
	C751.349548,557.983521 751.349548,560.660461 751.349548,563.608704 
	C754.351257,563.608704 756.977112,563.608704 759.945190,563.950867 
M208.401947,560.771545 
	C205.668152,560.771545 202.934357,560.771545 200.182632,560.771545 
	C200.182632,563.715149 200.182632,566.318237 200.182632,568.793762 
	C203.321136,569.169312 206.236481,569.518127 209.024796,570.774414 
	C209.024796,573.225098 209.024796,575.675781 209.024796,578.391235 
	C212.141907,578.391235 214.867874,578.391235 217.835007,578.391235 
	C217.835007,575.407104 217.835007,572.633911 218.206696,568.895264 
	C221.128693,568.895264 224.050690,568.895264 226.792328,568.895264 
	C226.792328,565.969910 226.792328,563.272888 226.792328,560.662903 
	C223.529053,560.466553 220.699707,560.296326 217.932922,559.193115 
	C217.932922,556.473938 217.932922,553.754822 217.932922,551.339233 
	C214.543625,551.339233 211.823059,551.339233 209.114731,551.339233 
	C209.114731,554.510864 209.114731,557.314453 208.401947,560.771545 
M619.335510,582.777405 
	C619.356384,584.878967 619.377258,586.980530 618.566101,589.296143 
	C617.383179,590.090698 615.250183,590.807983 615.178223,591.692932 
	C614.824219,596.044922 615.017395,600.441345 615.017395,604.921875 
	C619.100586,604.921875 622.377869,604.921875 626.398926,604.921875 
	C626.398926,600.187378 626.398926,595.605164 627.392212,590.939941 
	C627.799133,588.056458 628.206055,585.173035 628.637024,582.118896 
	C624.714905,582.118896 621.757324,582.118896 618.695312,581.184204 
	C618.700989,578.060669 618.706726,574.937134 619.699890,571.741028 
	C622.926270,571.748108 626.152649,571.755188 629.260376,572.693420 
	C629.260376,575.453247 629.260376,578.213013 629.260376,581.192078 
	C632.098633,581.192078 634.843201,581.192078 637.709595,581.192078 
	C637.709595,578.260864 637.709595,575.554565 637.709595,572.845154 
	C634.709290,572.488464 631.982483,572.164307 628.471130,571.323364 
	C628.471130,568.603516 628.471130,565.883667 628.471130,563.149414 
	C625.109070,563.149414 622.513489,563.149414 619.786865,563.149414 
	C619.459167,566.181213 619.148804,569.052368 618.077271,572.395874 
	C615.461182,572.395874 612.845093,572.395874 610.105713,572.395874 
	C610.105713,575.645203 610.105713,578.281799 610.105713,581.039795 
	C613.130920,581.360168 616.036743,581.667969 619.335510,582.777405 
M686.962341,515.819946 
	C684.054138,515.470947 682.638794,516.569580 682.792542,519.685913 
	C682.955139,522.982971 682.828979,526.294250 682.828979,530.094849 
	C678.111633,529.303772 677.734619,532.363770 677.883606,535.873779 
	C677.968323,537.868591 677.615234,539.970703 678.149780,541.825623 
	C678.491699,543.012390 680.088196,544.687500 681.131836,544.694397 
	C696.259277,544.793762 693.781799,546.939148 693.925964,533.508057 
	C693.934753,532.686829 693.927185,531.865417 693.927185,531.105774 
	C699.214722,529.333313 699.214722,529.333313 698.768555,516.636047 
	C703.603149,515.208862 706.272339,508.441986 704.107849,501.995850 
	C706.681885,501.699097 709.122986,501.417664 712.078003,501.076965 
	C712.078003,506.281250 712.078003,510.718292 712.078003,515.205261 
	C713.973145,515.691040 715.471924,516.075195 716.966675,516.458313 
	C716.966675,521.060425 716.966675,525.334229 716.966675,529.626343 
	C718.773438,530.071533 720.155640,530.412048 722.025269,530.872742 
	C722.025269,535.546265 722.025269,540.066101 722.025269,544.565186 
	C727.387573,544.565186 731.994446,544.565186 736.970093,544.565186 
	C736.970093,539.724792 736.970093,535.195374 736.970093,530.813293 
	C734.972839,530.298157 733.581421,529.939270 732.152100,529.570618 
	C732.152100,524.939514 732.152100,520.558899 732.152100,515.726196 
	C728.733582,515.726196 725.958069,515.726196 723.532898,515.726196 
	C721.012756,510.470367 727.125122,502.830566 718.052673,500.405151 
	C718.052673,496.117157 718.052673,491.817688 718.052673,487.540161 
	C727.366638,485.291901 720.765015,477.462891 723.603027,472.577942 
	C726.191589,472.379059 729.089905,472.156403 732.346741,471.906189 
	C732.346741,467.107697 732.346741,462.703827 732.346741,458.377441 
	C737.829041,457.274292 738.986389,452.958344 736.481995,443.498993 
	C731.806824,443.498993 727.057251,443.498993 721.790039,443.498993 
	C721.790039,448.320801 721.790039,452.872772 721.790039,456.866302 
	C713.126770,459.980255 717.729187,466.682343 716.568542,472.119080 
	C712.460876,471.192505 711.655884,473.775452 711.749878,477.262970 
	C711.833252,480.357605 711.767273,483.456207 711.767273,486.951202 
	C708.803101,486.805939 706.114868,486.674194 703.715698,486.556610 
	C702.268799,480.850677 707.559204,473.589722 698.448364,471.307556 
	C699.686584,460.067383 699.312195,458.878571 693.797241,456.909943 
	C693.859680,455.635895 693.936523,454.317383 693.987183,452.997864 
	C694.362305,443.229004 694.360413,443.190704 684.532043,443.252930 
	C682.595825,443.265167 679.081299,443.419769 678.982239,443.982178 
	C678.304382,447.830536 677.997375,451.837494 678.360535,455.719482 
	C678.470703,456.896576 681.072510,457.840515 683.142212,459.329498 
	C683.142212,462.902130 683.142212,467.323090 683.142212,471.924072 
	C686.606201,472.145111 691.968811,471.790649 692.162415,472.611511 
	C693.527405,478.397766 688.939941,485.274719 697.413696,487.930481 
	C697.424072,487.933777 697.156555,488.823944 696.146912,489.055634 
	C693.512756,489.055634 690.878601,489.055634 687.854614,489.055634 
	C687.854614,492.323822 687.854614,495.349396 687.854614,498.625977 
	C684.710632,498.625977 681.946045,498.625977 679.089355,498.625977 
	C679.089355,501.742310 679.089355,504.574371 679.089355,507.614227 
	C682.330139,507.614227 685.118164,507.614227 687.884644,507.614227 
	C687.884644,510.468781 687.884644,513.106323 686.962341,515.819946 
M273.583344,464.231781 
	C273.583344,457.885956 273.583344,451.540131 273.583344,444.809021 
	C259.881714,444.809021 247.399841,444.809021 234.917953,444.809021 
	C217.024887,444.809021 217.024887,444.809021 218.883804,462.916290 
	C218.900818,463.082001 218.938187,463.248077 218.933929,463.413177 
	C218.866470,466.031342 219.842041,467.319733 222.756866,467.273315 
	C226.525848,467.213287 230.302536,467.637787 234.088776,467.854401 
	C234.088776,505.651642 234.088776,543.012939 234.088776,580.810852 
	C230.081985,580.810852 226.414597,580.511780 222.841034,580.960388 
	C221.444244,581.135742 219.241074,582.913330 219.151321,584.093933 
	C218.749863,589.373901 218.753876,594.718811 219.155548,599.998840 
	C219.243210,601.151306 221.483292,602.907227 222.871155,603.052002 
	C227.322189,603.516235 231.838257,603.412781 236.329498,603.424805 
	C248.434967,603.457092 260.540588,603.435852 273.259613,603.435852 
	C273.259613,595.559753 273.259613,588.423828 273.259613,581.159607 
	C267.797943,580.903198 263.075897,580.681580 258.381042,580.461182 
	C258.381042,542.576721 258.381042,505.367371 258.381042,467.887604 
	C262.721710,467.625336 266.844543,467.376221 271.172302,467.967407 
	C271.281860,470.232758 271.391449,472.498077 271.499023,474.721863 
	C274.828369,474.721863 277.741089,474.721863 280.576477,474.721863 
	C280.576477,471.546631 280.576477,468.674500 280.576477,465.753296 
	C277.929535,465.536652 275.629944,465.348419 273.583344,464.231781 
M127.662338,585.919434 
	C127.707634,578.629456 127.775002,571.339600 127.792694,564.049561 
	C127.815414,554.689087 127.798225,545.328491 127.798225,535.195068 
	C141.301514,535.195068 154.932236,535.095459 168.559570,535.266602 
	C171.877655,535.308289 173.054001,534.097595 173.017258,530.976746 
	C172.947815,525.077332 172.997192,519.176392 172.997192,512.841980 
	C176.872696,512.841980 180.564926,513.155701 184.154205,512.684753 
	C185.553589,512.501038 187.804932,510.572174 187.827972,509.402008 
	C188.079575,496.619965 187.960831,483.830719 187.956772,471.043457 
	C187.955856,468.170715 186.311966,467.382080 183.747147,467.441498 
	C180.120804,467.525543 176.491089,467.462830 173.000824,467.462830 
	C173.000824,461.008148 172.931198,455.376526 173.026367,449.747711 
	C173.085541,446.247620 171.883179,444.875336 168.063477,444.901306 
	C148.069839,445.037445 128.073135,444.958832 108.080070,444.730286 
	C104.415932,444.688416 102.792397,445.808472 102.963715,449.457275 
	C103.244019,455.426666 103.745636,461.400635 103.684258,467.367859 
	C103.571953,478.285492 102.951347,489.197998 102.844177,500.115601 
	C102.689819,515.839172 102.752373,531.565674 102.841354,547.290222 
	C102.863823,551.260010 103.590904,555.229431 103.558182,559.195435 
	C103.450226,572.281311 103.137375,585.365601 102.923950,598.450745 
	C102.910454,599.278076 102.796021,600.311829 103.219315,600.890564 
	C103.894157,601.813110 104.965317,603.057678 105.897598,603.082397 
	C112.824234,603.265991 119.757957,603.182007 127.787903,603.182007 
	C127.787903,597.368103 127.787903,592.101013 127.662338,585.919434 
M437.555450,574.170776 
	C437.555450,561.464050 437.555450,548.757324 437.555450,535.393555 
	C452.264465,535.393555 467.003754,535.393555 482.891327,535.393555 
	C482.891327,528.833496 482.864166,522.916931 482.902191,517.000793 
	C482.923004,513.764587 481.386292,512.885254 478.231506,512.918762 
	C466.574860,513.042664 454.914886,512.887939 443.256561,512.789978 
	C441.316376,512.773682 439.378174,512.519104 437.429565,512.373962 
	C437.429565,497.371002 437.429565,482.839996 437.429565,467.581573 
	C452.111877,467.581573 466.866516,467.581573 482.398987,467.581573 
	C482.398987,459.694946 482.398987,452.535919 482.398987,445.210876 
	C480.527130,445.120026 479.212494,445.005676 477.897430,445.000092 
	C460.742004,444.927124 443.586487,444.849091 426.430969,444.814362 
	C411.640228,444.784393 411.892609,444.794708 412.699554,459.949371 
	C413.271332,470.687469 413.108398,481.467743 413.158844,492.229736 
	C413.222565,505.815765 413.178406,519.402344 413.164246,532.988708 
	C413.154602,542.254272 413.130463,551.519958 413.087952,560.785461 
	C413.029419,573.545044 412.976685,586.304810 412.855011,599.063843 
	C412.824677,602.249146 414.109406,603.369019 417.365295,603.271973 
	C423.348083,603.093872 429.344269,603.430359 435.335144,603.444153 
	C450.783630,603.479614 466.232269,603.456055 482.390137,603.456055 
	C482.390137,595.652161 482.390137,588.500061 482.390137,580.453613 
	C466.850220,580.453613 452.007812,580.453613 436.983154,580.453613 
	C437.227112,578.062988 437.378510,576.579346 437.555450,574.170776 
M304.989685,568.548645 
	C305.221558,572.507568 305.453430,576.466492 305.668365,580.135803 
	C303.324432,582.171204 298.356201,578.732483 298.066132,583.939636 
	C297.719421,590.164062 297.984344,596.422546 297.984344,603.105835 
	C306.308624,603.105835 313.871674,603.105835 321.994659,603.105835 
	C321.994659,595.594666 321.994659,588.522339 321.994659,581.495789 
	C330.084595,579.917480 330.102722,579.917664 330.191925,571.349854 
	C330.236145,567.098877 330.199585,562.847107 330.199585,558.440125 
	C332.398285,558.191284 334.505798,557.952820 337.214783,557.646240 
	C337.214783,550.384766 337.214783,543.325317 337.214783,536.001099 
	C341.874756,536.001099 346.376801,536.001099 350.969116,536.001099 
	C350.969116,543.490784 350.969116,550.543762 350.969116,557.755859 
	C354.059448,557.939331 356.344086,558.075012 357.989716,558.172668 
	C357.989716,562.848999 357.976837,567.283569 357.992493,571.718018 
	C358.021851,580.035339 358.028717,580.035339 365.931427,581.395996 
	C365.931427,587.500427 365.767395,593.618408 366.071106,599.713135 
	C366.131195,600.919006 367.945862,602.988464 369.025024,603.037415 
	C375.797577,603.344666 382.590973,603.192810 390.066986,603.192810 
	C390.066986,595.594177 390.066986,588.442200 390.066986,581.405701 
	C387.057831,580.942810 384.830658,580.600220 382.920685,580.306396 
	C382.920685,573.932983 382.935028,568.143066 382.914764,562.353271 
	C382.904236,559.351685 381.757324,557.794128 378.356079,558.083313 
	C374.737976,558.390930 371.073486,558.152527 368.009521,558.152527 
	C368.009521,553.478516 368.043335,549.355164 368.002533,545.232483 
	C367.916382,536.523682 367.900360,536.523865 360.228271,534.754272 
	C360.228271,527.660522 360.228271,520.569824 360.228271,513.425720 
	C367.950439,511.830353 367.958801,511.830383 368.006439,502.895020 
	C368.028351,498.791412 368.010162,494.687622 368.010162,490.060608 
	C372.717072,490.060608 377.332916,490.060608 382.569580,490.060608 
	C382.569580,482.349457 382.569580,475.142944 382.569580,468.022095 
	C385.298309,467.604401 387.400604,467.282623 390.022339,466.881317 
	C390.022339,459.517792 390.022339,452.380951 390.022339,444.804718 
	C382.879883,444.804718 376.556702,444.985901 370.251038,444.731720 
	C366.868011,444.595367 365.779266,446.039825 365.791718,449.064758 
	C365.816132,455.003235 365.798920,460.941895 365.798920,466.873047 
	C358.295502,468.246674 358.222992,468.244110 357.940155,476.207123 
	C357.782043,480.658722 357.911743,485.120544 357.911743,489.730194 
	C350.379822,491.126221 350.285553,491.125275 350.193054,500.396973 
	C350.152588,504.456268 350.586273,508.520264 350.787720,512.267944 
	C345.899200,512.267944 341.521698,512.267944 336.925720,512.267944 
	C337.243134,509.738983 337.572906,507.773071 337.714966,505.793671 
	C337.857758,503.804382 337.870697,501.800812 337.841705,499.804962 
	C337.713654,490.991791 337.700775,490.991974 330.068604,489.662628 
	C330.068604,484.770386 329.790863,479.965210 330.141327,475.206299 
	C330.548004,469.683899 328.831299,466.611053 322.826996,467.105865 
	C322.593353,467.125092 322.324249,466.714020 322.115845,466.540253 
	C322.115845,459.458832 322.115845,452.410706 322.115845,444.804474 
	C318.080688,444.804474 314.773743,444.813660 311.466888,444.802887 
	C296.508453,444.754150 296.427643,445.091766 297.401428,460.303009 
	C297.746155,465.688049 299.526398,468.250793 305.001556,467.802643 
	C305.228699,467.784058 305.491119,468.195740 305.884094,468.533173 
	C305.884094,475.541687 305.884094,482.671417 305.884094,490.010376 
	C309.100281,490.010376 311.423248,490.010376 313.746185,490.010376 
	C316.055786,490.010376 318.365356,490.010376 320.691742,490.010376 
	C320.463165,494.867462 320.022003,499.319702 320.094452,503.763580 
	C320.230194,512.088806 320.353943,512.086792 327.888000,513.333313 
	C327.888000,520.576965 327.888000,527.782898 327.888000,534.971008 
	C320.542419,536.094238 320.457245,536.090881 320.146118,543.996521 
	C319.966187,548.568726 320.113464,553.153870 320.113464,558.151855 
	C318.549011,558.151855 316.573303,558.151367 314.597565,558.151978 
	C305.212769,558.154785 305.212769,558.154846 304.989685,568.548645 
M570.481018,580.918396 
	C557.096985,580.918396 543.712891,580.918396 530.284668,580.918396 
	C530.284668,534.849365 530.284668,490.071991 530.284668,444.831818 
	C523.469910,444.831818 517.472656,445.106293 511.514923,444.739746 
	C507.218781,444.475372 505.803253,446.268372 505.978851,450.162659 
	C506.248016,456.132172 506.729523,462.104706 506.689301,468.073059 
	C506.603363,480.821655 506.202240,493.567841 506.021240,506.316315 
	C505.981567,509.110382 506.462128,511.910065 506.457458,514.706726 
	C506.448090,520.350464 506.142273,525.994934 506.190735,531.637146 
	C506.268799,540.724915 506.732819,549.812317 506.673737,558.897583 
	C506.589783,571.812378 506.179352,584.724976 505.910950,597.638611 
	C505.907501,597.804260 505.956482,597.971436 505.948853,598.136414 
	C505.778168,601.826355 507.113922,603.470581 511.213379,603.275391 
	C517.688660,602.966919 524.195557,603.380310 530.689270,603.391968 
	C547.973755,603.422913 565.258362,603.402527 583.199890,603.402527 
	C583.199890,595.553894 583.199890,588.424683 583.199890,580.980957 
	C578.768372,580.980957 575.118530,580.980957 570.481018,580.918396 
M553.477295,482.133942 
	C553.637878,488.754333 553.970215,495.375946 553.921692,501.994812 
	C553.832886,514.080261 553.473938,526.163574 553.340881,538.249023 
	C553.317871,540.333740 553.854370,542.424683 554.128174,544.480713 
	C559.322266,544.480713 564.045532,544.480713 569.166748,544.480713 
	C569.166748,530.062012 569.166748,516.021790 569.166748,501.345306 
	C578.876526,501.345306 588.266541,501.345306 598.118591,501.345306 
	C598.118591,496.286896 598.118591,491.858612 598.118591,487.224426 
	C601.381226,486.997772 604.468018,486.783356 607.803101,486.551697 
	C607.803101,476.894073 607.803101,467.670898 607.803101,458.220306 
	C604.360779,457.917480 601.331299,457.650970 597.982910,457.356415 
	C597.982910,452.382874 597.982910,448.012909 597.982910,443.443878 
	C583.025513,443.443878 568.751282,443.443878 553.399597,443.443878 
	C553.399597,456.177429 553.399597,468.714264 553.477295,482.133942 
M627.918762,542.629944 
	C629.314575,543.357910 630.693298,544.674622 632.109070,544.715698 
	C639.768127,544.937866 647.436401,544.868469 655.101440,544.852844 
	C663.113647,544.836487 662.902649,544.807190 663.128784,537.010620 
	C663.269592,532.158020 662.252808,529.207336 656.586121,530.177063 
	C655.511230,530.361023 654.335999,529.958740 653.097290,529.814148 
	C653.097290,505.856995 653.097290,482.116241 653.097290,458.409851 
	C663.648438,456.775024 663.931763,456.439606 662.983398,446.944336 
	C662.950317,446.612946 663.072205,446.145264 662.895081,445.969238 
	C661.965027,445.044769 660.975037,443.449463 659.982056,443.431885 
	C649.516479,443.246674 639.046448,443.317291 628.087646,443.317291 
	C628.087646,448.253021 628.087646,452.788879 628.087646,457.596069 
	C631.497681,457.772369 634.444336,457.924683 637.492188,458.082245 
	C637.492188,482.170959 637.492188,506.027832 637.492188,530.389221 
	C634.242188,530.389221 631.315552,530.389221 627.822571,530.389221 
	C627.822571,534.517822 627.822571,538.146423 627.918762,542.629944 
M704.975952,565.966309 
	C705.494995,563.548645 706.014038,561.131042 706.567261,558.553894 
	C704.167419,558.145142 702.621094,557.881714 701.162231,557.633240 
	C701.019287,555.136108 700.897888,553.014465 700.761475,550.631165 
	C691.777771,550.631165 683.081482,550.631165 674.413818,550.631165 
	C674.413818,568.956482 674.413818,586.843567 674.413818,604.813477 
	C677.265747,604.813477 679.701233,604.813477 682.830078,604.813477 
	C682.830078,597.049683 682.830078,589.530945 682.830078,582.093750 
	C686.282776,582.093750 689.032837,582.093750 690.694458,582.093750 
	C693.486511,590.072571 696.043579,597.379883 698.649719,604.827393 
	C700.880737,604.827393 703.314575,604.827393 706.790466,604.827393 
	C705.427795,599.525635 704.172485,594.720154 702.963379,589.903198 
	C702.374634,587.557495 702.635925,583.992981 701.182068,583.065369 
	C697.390076,580.646118 698.532471,577.545532 698.381897,574.399353 
	C700.152344,574.010437 701.704529,573.669495 703.284790,573.322327 
	C703.609558,570.765564 703.896484,568.506592 704.975952,565.966309 
M669.097473,587.938293 
	C668.969116,583.467773 669.409546,578.882202 668.535156,574.562683 
	C667.815979,571.009827 665.195068,567.885498 664.034546,564.367554 
	C662.551208,559.870972 661.687866,555.169861 660.470825,550.203857 
	C658.060730,550.203857 655.561462,550.025940 653.108826,550.286499 
	C652.048645,550.399170 650.494446,551.197815 650.174011,552.060059 
	C648.273804,557.172180 646.284973,562.305908 645.067444,567.602844 
	C643.673523,573.667053 643.044373,579.907654 642.107117,586.075317 
	C641.983459,586.888794 642.338196,588.045715 641.903503,588.499512 
	C637.054382,593.561340 640.851379,599.337402 639.723999,604.848328 
	C642.881104,604.848328 645.320496,604.848328 648.342773,604.848328 
	C648.342773,599.736816 648.342773,594.843872 648.342773,589.862061 
	C653.501587,589.862061 658.072388,589.862061 663.302734,589.862061 
	C663.302734,595.075867 663.302734,599.947876 663.302734,604.760437 
	C666.394897,604.760437 668.816284,604.760437 671.856445,604.760437 
	C671.856445,600.336548 672.040771,596.210022 671.738953,592.119385 
	C671.653381,590.960022 670.149231,589.905396 669.097473,587.938293 
M730.133911,599.012207 
	C730.133911,585.455566 730.133911,571.898865 730.133911,558.077271 
	C732.869324,558.077271 734.875183,557.918945 736.846130,558.113586 
	C739.970825,558.422180 740.863159,557.014343 740.909973,554.079895 
	C740.961121,550.877991 739.499146,550.143860 736.644714,550.198242 
	C730.154419,550.321899 723.659790,550.209534 717.166931,550.209167 
	C710.472717,550.208801 709.793701,551.218811 712.169434,558.182251 
	C715.133667,558.182251 718.236023,558.182251 721.808838,558.182251 
	C721.808838,573.961548 721.808838,589.343628 721.808838,604.889160 
	C724.747864,604.889160 727.207336,604.889160 730.186707,604.889160 
	C730.186707,603.077576 730.186707,601.448669 730.133911,599.012207 
z"/>
<path fill="#2CCCFC" opacity="1.000000" stroke="none" 
	d="
M127.725121,586.376709 
	C127.787903,592.101013 127.787903,597.368103 127.787903,603.182007 
	C119.757957,603.182007 112.824234,603.265991 105.897598,603.082397 
	C104.965317,603.057678 103.894157,601.813110 103.219315,600.890564 
	C102.796021,600.311829 102.910454,599.278076 102.923950,598.450745 
	C103.137375,585.365601 103.450226,572.281311 103.558182,559.195435 
	C103.590904,555.229431 102.863823,551.260010 102.841354,547.290222 
	C102.752373,531.565674 102.689819,515.839172 102.844177,500.115601 
	C102.951347,489.197998 103.571953,478.285492 103.684258,467.367859 
	C103.745636,461.400635 103.244019,455.426666 102.963715,449.457275 
	C102.792397,445.808472 104.415932,444.688416 108.080070,444.730286 
	C128.073135,444.958832 148.069839,445.037445 168.063477,444.901306 
	C171.883179,444.875336 173.085541,446.247620 173.026367,449.747711 
	C172.931198,455.376526 173.000824,461.008148 173.000824,467.462830 
	C176.491089,467.462830 180.120804,467.525543 183.747147,467.441498 
	C186.311966,467.382080 187.955856,468.170715 187.956772,471.043457 
	C187.960831,483.830719 188.079575,496.619965 187.827972,509.402008 
	C187.804932,510.572174 185.553589,512.501038 184.154205,512.684753 
	C180.564926,513.155701 176.872696,512.841980 172.997192,512.841980 
	C172.997192,519.176392 172.947815,525.077332 173.017258,530.976746 
	C173.054001,534.097595 171.877655,535.308289 168.559570,535.266602 
	C154.932236,535.095459 141.301514,535.195068 127.798225,535.195068 
	C127.798225,545.328491 127.815414,554.689087 127.792694,564.049561 
	C127.775002,571.339600 127.707634,578.629456 127.725121,586.376709 
M163.082764,501.461487 
	C163.082764,490.293030 163.082764,479.124573 163.082764,468.020508 
	C151.293488,468.020508 139.263901,468.020508 127.506935,468.020508 
	C127.506935,483.042023 127.506935,497.585754 127.506935,512.482666 
	C139.587708,512.482666 151.641556,512.482666 163.817886,512.482666 
	C163.582382,508.993744 163.359863,505.697327 163.082764,501.461487 
z"/>
<path fill="#2CCCFC" opacity="1.000000" stroke="none" 
	d="
M437.542664,574.633240 
	C437.378510,576.579346 437.227112,578.062988 436.983154,580.453613 
	C452.007812,580.453613 466.850220,580.453613 482.390137,580.453613 
	C482.390137,588.500061 482.390137,595.652161 482.390137,603.456055 
	C466.232269,603.456055 450.783630,603.479614 435.335144,603.444153 
	C429.344269,603.430359 423.348083,603.093872 417.365295,603.271973 
	C414.109406,603.369019 412.824677,602.249146 412.855011,599.063843 
	C412.976685,586.304810 413.029419,573.545044 413.087952,560.785461 
	C413.130463,551.519958 413.154602,542.254272 413.164246,532.988708 
	C413.178406,519.402344 413.222565,505.815765 413.158844,492.229736 
	C413.108398,481.467743 413.271332,470.687469 412.699554,459.949371 
	C411.892609,444.794708 411.640228,444.784393 426.430969,444.814362 
	C443.586487,444.849091 460.742004,444.927124 477.897430,445.000092 
	C479.212494,445.005676 480.527130,445.120026 482.398987,445.210876 
	C482.398987,452.535919 482.398987,459.694946 482.398987,467.581573 
	C466.866516,467.581573 452.111877,467.581573 437.429565,467.581573 
	C437.429565,482.839996 437.429565,497.371002 437.429565,512.373962 
	C439.378174,512.519104 441.316376,512.773682 443.256561,512.789978 
	C454.914886,512.887939 466.574860,513.042664 478.231506,512.918762 
	C481.386292,512.885254 482.923004,513.764587 482.902191,517.000793 
	C482.864166,522.916931 482.891327,528.833496 482.891327,535.393555 
	C467.003754,535.393555 452.264465,535.393555 437.555450,535.393555 
	C437.555450,548.757324 437.555450,561.464050 437.542664,574.633240 
z"/>
<path fill="#2BCBFB" opacity="1.000000" stroke="none" 
	d="
M304.989746,568.072021 
	C305.212769,558.154846 305.212769,558.154785 314.597565,558.151978 
	C316.573303,558.151367 318.549011,558.151855 320.113464,558.151855 
	C320.113464,553.153870 319.966187,548.568726 320.146118,543.996521 
	C320.457245,536.090881 320.542419,536.094238 327.888000,534.971008 
	C327.888000,527.782898 327.888000,520.576965 327.888000,513.333313 
	C320.353943,512.086792 320.230194,512.088806 320.094452,503.763580 
	C320.022003,499.319702 320.463165,494.867462 320.691742,490.010376 
	C318.365356,490.010376 316.055786,490.010376 313.746185,490.010376 
	C311.423248,490.010376 309.100281,490.010376 305.884094,490.010376 
	C305.884094,482.671417 305.884094,475.541687 305.884094,468.533173 
	C305.491119,468.195740 305.228699,467.784058 305.001556,467.802643 
	C299.526398,468.250793 297.746155,465.688049 297.401428,460.303009 
	C296.427643,445.091766 296.508453,444.754150 311.466888,444.802887 
	C314.773743,444.813660 318.080688,444.804474 322.115845,444.804474 
	C322.115845,452.410706 322.115845,459.458832 322.115845,466.540253 
	C322.324249,466.714020 322.593353,467.125092 322.826996,467.105865 
	C328.831299,466.611053 330.548004,469.683899 330.141327,475.206299 
	C329.790863,479.965210 330.068604,484.770386 330.068604,489.662628 
	C337.700775,490.991974 337.713654,490.991791 337.841705,499.804962 
	C337.870697,501.800812 337.857758,503.804382 337.714966,505.793671 
	C337.572906,507.773071 337.243134,509.738983 336.925720,512.267944 
	C341.521698,512.267944 345.899200,512.267944 350.787720,512.267944 
	C350.586273,508.520264 350.152588,504.456268 350.193054,500.396973 
	C350.285553,491.125275 350.379822,491.126221 357.911743,489.730194 
	C357.911743,485.120544 357.782043,480.658722 357.940155,476.207123 
	C358.222992,468.244110 358.295502,468.246674 365.798920,466.873047 
	C365.798920,460.941895 365.816132,455.003235 365.791718,449.064758 
	C365.779266,446.039825 366.868011,444.595367 370.251038,444.731720 
	C376.556702,444.985901 382.879883,444.804718 390.022339,444.804718 
	C390.022339,452.380951 390.022339,459.517792 390.022339,466.881317 
	C387.400604,467.282623 385.298309,467.604401 382.569580,468.022095 
	C382.569580,475.142944 382.569580,482.349457 382.569580,490.060608 
	C377.332916,490.060608 372.717072,490.060608 368.010162,490.060608 
	C368.010162,494.687622 368.028351,498.791412 368.006439,502.895020 
	C367.958801,511.830383 367.950439,511.830353 360.228271,513.425720 
	C360.228271,520.569824 360.228271,527.660522 360.228271,534.754272 
	C367.900360,536.523865 367.916382,536.523682 368.002533,545.232483 
	C368.043335,549.355164 368.009521,553.478516 368.009521,558.152527 
	C371.073486,558.152527 374.737976,558.390930 378.356079,558.083313 
	C381.757324,557.794128 382.904236,559.351685 382.914764,562.353271 
	C382.935028,568.143066 382.920685,573.932983 382.920685,580.306396 
	C384.830658,580.600220 387.057831,580.942810 390.066986,581.405701 
	C390.066986,588.442200 390.066986,595.594177 390.066986,603.192810 
	C382.590973,603.192810 375.797577,603.344666 369.025024,603.037415 
	C367.945862,602.988464 366.131195,600.919006 366.071106,599.713135 
	C365.767395,593.618408 365.931427,587.500427 365.931427,581.395996 
	C358.028717,580.035339 358.021851,580.035339 357.992493,571.718018 
	C357.976837,567.283569 357.989716,562.848999 357.989716,558.172668 
	C356.344086,558.075012 354.059448,557.939331 350.969116,557.755859 
	C350.969116,550.543762 350.969116,543.490784 350.969116,536.001099 
	C346.376801,536.001099 341.874756,536.001099 337.214783,536.001099 
	C337.214783,543.325317 337.214783,550.384766 337.214783,557.646240 
	C334.505798,557.952820 332.398285,558.191284 330.199585,558.440125 
	C330.199585,562.847107 330.236145,567.098877 330.191925,571.349854 
	C330.102722,579.917664 330.084595,579.917480 321.994659,581.495789 
	C321.994659,588.522339 321.994659,595.594666 321.994659,603.105835 
	C313.871674,603.105835 306.308624,603.105835 297.984344,603.105835 
	C297.984344,596.422546 297.719421,590.164062 298.066132,583.939636 
	C298.356201,578.732483 303.324432,582.171204 305.668365,580.135803 
	C305.453430,576.466492 305.221558,572.507568 304.989746,568.072021 
z"/>
<path fill="#2CCCFC" opacity="1.000000" stroke="none" 
	d="
M270.967377,467.127106 
	C266.844543,467.376221 262.721710,467.625336 258.381042,467.887604 
	C258.381042,505.367371 258.381042,542.576721 258.381042,580.461182 
	C263.075897,580.681580 267.797943,580.903198 273.259613,581.159607 
	C273.259613,588.423828 273.259613,595.559753 273.259613,603.435852 
	C260.540588,603.435852 248.434967,603.457092 236.329498,603.424805 
	C231.838257,603.412781 227.322189,603.516235 222.871155,603.052002 
	C221.483292,602.907227 219.243210,601.151306 219.155548,599.998840 
	C218.753876,594.718811 218.749863,589.373901 219.151321,584.093933 
	C219.241074,582.913330 221.444244,581.135742 222.841034,580.960388 
	C226.414597,580.511780 230.081985,580.810852 234.088776,580.810852 
	C234.088776,543.012939 234.088776,505.651642 234.088776,467.854401 
	C230.302536,467.637787 226.525848,467.213287 222.756866,467.273315 
	C219.842041,467.319733 218.866470,466.031342 218.933929,463.413177 
	C218.938187,463.248077 218.900818,463.082001 218.883804,462.916290 
	C217.024887,444.809021 217.024887,444.809021 234.917953,444.809021 
	C247.399841,444.809021 259.881714,444.809021 273.583344,444.809021 
	C273.583344,451.540131 273.583344,457.885956 273.272949,464.798706 
	C272.297516,465.952789 271.632446,466.539948 270.967377,467.127106 
z"/>
<path fill="#2CCDFD" opacity="1.000000" stroke="none" 
	d="
M570.974854,580.949707 
	C575.118530,580.980957 578.768372,580.980957 583.199890,580.980957 
	C583.199890,588.424683 583.199890,595.553894 583.199890,603.402527 
	C565.258362,603.402527 547.973755,603.422913 530.689270,603.391968 
	C524.195557,603.380310 517.688660,602.966919 511.213379,603.275391 
	C507.113922,603.470581 505.778168,601.826355 505.948853,598.136414 
	C505.956482,597.971436 505.907501,597.804260 505.910950,597.638611 
	C506.179352,584.724976 506.589783,571.812378 506.673737,558.897583 
	C506.732819,549.812317 506.268799,540.724915 506.190735,531.637146 
	C506.142273,525.994934 506.448090,520.350464 506.457458,514.706726 
	C506.462128,511.910065 505.981567,509.110382 506.021240,506.316315 
	C506.202240,493.567841 506.603363,480.821655 506.689301,468.073059 
	C506.729523,462.104706 506.248016,456.132172 505.978851,450.162659 
	C505.803253,446.268372 507.218781,444.475372 511.514923,444.739746 
	C517.472656,445.106293 523.469910,444.831818 530.284668,444.831818 
	C530.284668,490.071991 530.284668,534.849365 530.284668,580.918396 
	C543.712891,580.918396 557.096985,580.918396 570.974854,580.949707 
z"/>
<path fill="#C162FB" opacity="1.000000" stroke="none" 
	d="
M553.438477,481.692505 
	C553.399597,468.714264 553.399597,456.177429 553.399597,443.443878 
	C568.751282,443.443878 583.025513,443.443878 597.982910,443.443878 
	C597.982910,448.012909 597.982910,452.382874 597.982910,457.356415 
	C601.331299,457.650970 604.360779,457.917480 607.803101,458.220306 
	C607.803101,467.670898 607.803101,476.894073 607.803101,486.551697 
	C604.468018,486.783356 601.381226,486.997772 598.118591,487.224426 
	C598.118591,491.858612 598.118591,496.286896 598.118591,501.345306 
	C588.266541,501.345306 578.876526,501.345306 569.166748,501.345306 
	C569.166748,516.021790 569.166748,530.062012 569.166748,544.480713 
	C564.045532,544.480713 559.322266,544.480713 554.128174,544.480713 
	C553.854370,542.424683 553.317871,540.333740 553.340881,538.249023 
	C553.473938,526.163574 553.832886,514.080261 553.921692,501.994812 
	C553.970215,495.375946 553.637878,488.754333 553.438477,481.692505 
M569.293091,461.159241 
	C569.293091,469.557373 569.293091,477.955536 569.293091,486.620605 
	C577.139832,486.620605 584.707581,486.620605 592.394043,486.620605 
	C592.394043,477.076324 592.394043,467.736420 592.394043,457.972870 
	C584.989685,457.972870 577.889282,457.922668 570.792969,458.072510 
	C570.252380,458.083954 569.741760,459.512390 569.293091,461.159241 
z"/>
<path fill="#C062F9" opacity="1.000000" stroke="none" 
	d="
M697.018921,489.299805 
	C697.156555,488.823944 697.424072,487.933777 697.413696,487.930481 
	C688.939941,485.274719 693.527405,478.397766 692.162415,472.611511 
	C691.968811,471.790649 686.606201,472.145111 683.142212,471.924072 
	C683.142212,467.323090 683.142212,462.902130 683.142212,459.329498 
	C681.072510,457.840515 678.470703,456.896576 678.360535,455.719482 
	C677.997375,451.837494 678.304382,447.830536 678.982239,443.982178 
	C679.081299,443.419769 682.595825,443.265167 684.532043,443.252930 
	C694.360413,443.190704 694.362305,443.229004 693.987183,452.997864 
	C693.936523,454.317383 693.859680,455.635895 693.797241,456.909943 
	C699.312195,458.878571 699.686584,460.067383 698.448364,471.307556 
	C707.559204,473.589722 702.268799,480.850677 703.715698,486.556610 
	C706.114868,486.674194 708.803101,486.805939 711.767273,486.951202 
	C711.767273,483.456207 711.833252,480.357605 711.749878,477.262970 
	C711.655884,473.775452 712.460876,471.192505 716.568542,472.119080 
	C717.729187,466.682343 713.126770,459.980255 721.790039,456.866302 
	C721.790039,452.872772 721.790039,448.320801 721.790039,443.498993 
	C727.057251,443.498993 731.806824,443.498993 736.481995,443.498993 
	C738.986389,452.958344 737.829041,457.274292 732.346741,458.377441 
	C732.346741,462.703827 732.346741,467.107697 732.346741,471.906189 
	C729.089905,472.156403 726.191589,472.379059 723.603027,472.577942 
	C720.765015,477.462891 727.366638,485.291901 718.052673,487.540161 
	C718.052673,491.817688 718.052673,496.117157 718.052673,500.405151 
	C727.125122,502.830566 721.012756,510.470367 723.532898,515.726196 
	C725.958069,515.726196 728.733582,515.726196 732.152100,515.726196 
	C732.152100,520.558899 732.152100,524.939514 732.152100,529.570618 
	C733.581421,529.939270 734.972839,530.298157 736.970093,530.813293 
	C736.970093,535.195374 736.970093,539.724792 736.970093,544.565186 
	C731.994446,544.565186 727.387573,544.565186 722.025269,544.565186 
	C722.025269,540.066101 722.025269,535.546265 722.025269,530.872742 
	C720.155640,530.412048 718.773438,530.071533 716.966675,529.626343 
	C716.966675,525.334229 716.966675,521.060425 716.966675,516.458313 
	C715.471924,516.075195 713.973145,515.691040 712.078003,515.205261 
	C712.078003,510.718292 712.078003,506.281250 712.078003,501.076965 
	C709.122986,501.417664 706.681885,501.699097 704.107849,501.995850 
	C706.272339,508.441986 703.603149,515.208862 698.768555,516.636047 
	C699.214722,529.333313 699.214722,529.333313 693.927185,531.105774 
	C693.927185,531.865417 693.934753,532.686829 693.925964,533.508057 
	C693.781799,546.939148 696.259277,544.793762 681.131836,544.694397 
	C680.088196,544.687500 678.491699,543.012390 678.149780,541.825623 
	C677.615234,539.970703 677.968323,537.868591 677.883606,535.873779 
	C677.734619,532.363770 678.111633,529.303772 682.828979,530.094849 
	C682.828979,526.294250 682.955139,522.982971 682.792542,519.685913 
	C682.638794,516.569580 684.054138,515.470947 687.785767,515.861938 
	C689.969849,515.799561 691.330566,515.695251 693.098877,515.559753 
	C692.671448,512.686768 692.320740,510.329742 692.087158,507.589233 
	C692.775879,504.570831 691.876343,500.986023 696.404602,500.848297 
	C696.627502,500.841522 696.790588,498.871674 696.925415,497.390930 
	C696.919128,494.410553 696.968994,491.855194 697.018921,489.299805 
z"/>
<path fill="#C162FB" opacity="1.000000" stroke="none" 
	d="
M627.870667,542.202515 
	C627.822571,538.146423 627.822571,534.517822 627.822571,530.389221 
	C631.315552,530.389221 634.242188,530.389221 637.492188,530.389221 
	C637.492188,506.027832 637.492188,482.170959 637.492188,458.082245 
	C634.444336,457.924683 631.497681,457.772369 628.087646,457.596069 
	C628.087646,452.788879 628.087646,448.253021 628.087646,443.317291 
	C639.046448,443.317291 649.516479,443.246674 659.982056,443.431885 
	C660.975037,443.449463 661.965027,445.044769 662.895081,445.969238 
	C663.072205,446.145264 662.950317,446.612946 662.983398,446.944336 
	C663.931763,456.439606 663.648438,456.775024 653.097290,458.409851 
	C653.097290,482.116241 653.097290,505.856995 653.097290,529.814148 
	C654.335999,529.958740 655.511230,530.361023 656.586121,530.177063 
	C662.252808,529.207336 663.269592,532.158020 663.128784,537.010620 
	C662.902649,544.807190 663.113647,544.836487 655.101440,544.852844 
	C647.436401,544.868469 639.768127,544.937866 632.109070,544.715698 
	C630.693298,544.674622 629.314575,543.357910 627.870667,542.202515 
z"/>
<path fill="#2CC8F8" opacity="1.000000" stroke="none" 
	d="
M704.579712,566.106934 
	C703.896484,568.506592 703.609558,570.765564 703.284790,573.322327 
	C701.704529,573.669495 700.152344,574.010437 698.381897,574.399353 
	C698.532471,577.545532 697.390076,580.646118 701.182068,583.065369 
	C702.635925,583.992981 702.374634,587.557495 702.963379,589.903198 
	C704.172485,594.720154 705.427795,599.525635 706.790466,604.827393 
	C703.314575,604.827393 700.880737,604.827393 698.649719,604.827393 
	C696.043579,597.379883 693.486511,590.072571 690.694458,582.093750 
	C689.032837,582.093750 686.282776,582.093750 682.830078,582.093750 
	C682.830078,589.530945 682.830078,597.049683 682.830078,604.813477 
	C679.701233,604.813477 677.265747,604.813477 674.413818,604.813477 
	C674.413818,586.843567 674.413818,568.956482 674.413818,550.631165 
	C683.081482,550.631165 691.777771,550.631165 700.761475,550.631165 
	C700.897888,553.014465 701.019287,555.136108 701.162231,557.633240 
	C702.621094,557.881714 704.167419,558.145142 706.567261,558.553894 
	C706.014038,561.131042 705.494995,563.548645 704.579712,566.106934 
M692.273682,558.088867 
	C689.197083,558.088867 686.120483,558.088867 683.035400,558.088867 
	C683.035400,563.716309 683.035400,568.584290 683.035400,573.562561 
	C687.212524,573.562561 690.924377,573.562561 694.951599,573.562561 
	C694.951599,568.992249 695.040405,564.721680 694.872803,560.461121 
	C694.841187,559.657104 693.788818,558.893311 692.273682,558.088867 
z"/>
<path fill="#2CC8F8" opacity="1.000000" stroke="none" 
	d="
M669.196533,588.370483 
	C670.149231,589.905396 671.653381,590.960022 671.738953,592.119385 
	C672.040771,596.210022 671.856445,600.336548 671.856445,604.760437 
	C668.816284,604.760437 666.394897,604.760437 663.302734,604.760437 
	C663.302734,599.947876 663.302734,595.075867 663.302734,589.862061 
	C658.072388,589.862061 653.501587,589.862061 648.342773,589.862061 
	C648.342773,594.843872 648.342773,599.736816 648.342773,604.848328 
	C645.320496,604.848328 642.881104,604.848328 639.723999,604.848328 
	C640.851379,599.337402 637.054382,593.561340 641.903503,588.499512 
	C642.338196,588.045715 641.983459,586.888794 642.107117,586.075317 
	C643.044373,579.907654 643.673523,573.667053 645.067444,567.602844 
	C646.284973,562.305908 648.273804,557.172180 650.174011,552.060059 
	C650.494446,551.197815 652.048645,550.399170 653.108826,550.286499 
	C655.561462,550.025940 658.060730,550.203857 660.470825,550.203857 
	C661.687866,555.169861 662.551208,559.870972 664.034546,564.367554 
	C665.195068,567.885498 667.815979,571.009827 668.535156,574.562683 
	C669.409546,578.882202 668.969116,583.467773 669.196533,588.370483 
M650.953491,580.166138 
	C654.030884,580.812927 657.108276,581.459717 661.480896,582.378784 
	C659.796936,575.944092 658.551086,571.183472 657.263672,566.264160 
	C656.219849,566.264160 654.976013,566.264160 653.979187,566.264160 
	C652.917542,570.803223 651.925537,575.044373 650.953491,580.166138 
z"/>
<path fill="#2BCBFB" opacity="1.000000" stroke="none" 
	d="
M730.160278,599.416016 
	C730.186707,601.448669 730.186707,603.077576 730.186707,604.889160 
	C727.207336,604.889160 724.747864,604.889160 721.808838,604.889160 
	C721.808838,589.343628 721.808838,573.961548 721.808838,558.182251 
	C718.236023,558.182251 715.133667,558.182251 712.169434,558.182251 
	C709.793701,551.218811 710.472717,550.208801 717.166931,550.209167 
	C723.659790,550.209534 730.154419,550.321899 736.644714,550.198242 
	C739.499146,550.143860 740.961121,550.877991 740.909973,554.079895 
	C740.863159,557.014343 739.970825,558.422180 736.846130,558.113586 
	C734.875183,557.918945 732.869324,558.077271 730.133911,558.077271 
	C730.133911,571.898865 730.133911,585.455566 730.160278,599.416016 
z"/>
<path fill="#F1F2F4" opacity="1.000000" stroke="none" 
	d="
M696.582886,489.177734 
	C696.968994,491.855194 696.919128,494.410553 696.463013,497.465515 
	C693.106628,497.965118 690.156433,497.965118 687.337769,497.965118 
	C687.337769,501.502014 687.337769,504.713562 687.337769,507.972717 
	C689.031860,507.972717 690.500916,507.972717 691.970093,507.972717 
	C692.320740,510.329742 692.671448,512.686768 693.098877,515.559753 
	C691.330566,515.695251 689.969849,515.799561 688.246887,515.823853 
	C687.884644,513.106323 687.884644,510.468781 687.884644,507.614227 
	C685.118164,507.614227 682.330139,507.614227 679.089355,507.614227 
	C679.089355,504.574371 679.089355,501.742310 679.089355,498.625977 
	C681.946045,498.625977 684.710632,498.625977 687.854614,498.625977 
	C687.854614,495.349396 687.854614,492.323822 687.854614,489.055634 
	C690.878601,489.055634 693.512756,489.055634 696.582886,489.177734 
z"/>
<path fill="#2CC8F8" opacity="1.000000" stroke="none" 
	d="
M626.398926,591.022949 
	C626.398926,595.605164 626.398926,600.187378 626.398926,604.921875 
	C622.377869,604.921875 619.100586,604.921875 615.017395,604.921875 
	C615.017395,600.441345 614.824219,596.044922 615.178223,591.692932 
	C615.250183,590.807983 617.383179,590.090698 619.352051,589.262634 
	C622.225037,589.827087 624.311951,590.424988 626.398926,591.022949 
z"/>
<path fill="#F1F2F4" opacity="1.000000" stroke="none" 
	d="
M271.069824,467.547241 
	C271.632446,466.539948 272.297516,465.952789 273.146423,465.262909 
	C275.629944,465.348419 277.929535,465.536652 280.576477,465.753296 
	C280.576477,468.674500 280.576477,471.546631 280.576477,474.721863 
	C277.741089,474.721863 274.828369,474.721863 271.499023,474.721863 
	C271.391449,472.498077 271.281860,470.232758 271.069824,467.547241 
z"/>
<path fill="#121B46" opacity="1.000000" stroke="none" 
	d="
M759.942444,555.147949 
	C759.970032,554.911865 759.997620,554.675720 760.506348,554.172729 
	C763.664917,553.939453 766.342407,553.972961 769.019836,554.006470 
	C769.298157,554.139160 769.535767,554.324097 769.821289,555.199524 
	C770.068542,558.497192 770.227234,561.156616 770.385986,563.815979 
	C770.133118,563.857544 769.880310,563.899048 768.817017,564.031799 
	C765.435364,564.177795 762.864258,564.232544 760.293091,564.287231 
	C760.293091,564.287231 759.945190,563.950867 759.857788,563.368164 
	C759.827698,560.239624 759.885071,557.693787 759.942444,555.147949 
z"/>
<path fill="#F1F2F4" opacity="1.000000" stroke="none" 
	d="
M217.870346,560.126099 
	C220.699707,560.296326 223.529053,560.466553 226.792328,560.662903 
	C226.792328,563.272888 226.792328,565.969910 226.792328,568.895264 
	C224.050690,568.895264 221.128693,568.895264 218.067581,569.426270 
	C217.928467,569.957336 218.010803,570.063599 218.499100,569.852722 
	C218.665924,566.407043 218.344437,563.172241 217.986435,559.985901 
	C217.949921,560.034363 217.870346,560.126099 217.870346,560.126099 
z"/>
<path fill="#F1F2F4" opacity="1.000000" stroke="none" 
	d="
M629.255615,571.840149 
	C631.982483,572.164307 634.709290,572.488464 637.709595,572.845154 
	C637.709595,575.554565 637.709595,578.260864 637.709595,581.192078 
	C634.843201,581.192078 632.098633,581.192078 629.260376,581.192078 
	C629.260376,578.213013 629.260376,575.453247 629.286255,572.243164 
	C629.312073,571.792847 629.255615,571.840149 629.255615,571.840149 
z"/>
<path fill="#F1F2F4" opacity="1.000000" stroke="none" 
	d="
M618.942566,581.975708 
	C616.036743,581.667969 613.130920,581.360168 610.105713,581.039795 
	C610.105713,578.281799 610.105713,575.645203 610.105713,572.395874 
	C612.845093,572.395874 615.461182,572.395874 618.434570,572.128174 
	C618.791809,571.860474 618.712402,571.813599 618.712402,571.813599 
	C618.706726,574.937134 618.700989,578.060669 618.791443,581.621216 
	C618.887573,582.058289 618.942566,581.975708 618.942566,581.975708 
z"/>
<path fill="#F1F2F4" opacity="1.000000" stroke="none" 
	d="
M629.345581,571.777588 
	C626.152649,571.755188 622.926270,571.748108 619.206177,571.777344 
	C618.712402,571.813599 618.791809,571.860474 618.815186,571.891968 
	C619.148804,569.052368 619.459167,566.181213 619.786865,563.149414 
	C622.513489,563.149414 625.109070,563.149414 628.471130,563.149414 
	C628.471130,565.883667 628.471130,568.603516 628.863403,571.581787 
	C629.255615,571.840149 629.312073,571.792847 629.345581,571.777588 
z"/>
<path fill="#F1F2F4" opacity="1.000000" stroke="none" 
	d="
M209.151810,569.867004 
	C206.236481,569.518127 203.321136,569.169312 200.182632,568.793762 
	C200.182632,566.318237 200.182632,563.715149 200.182632,560.771545 
	C202.934357,560.771545 205.668152,560.771545 208.720764,560.399536 
	C209.039581,560.027527 208.968903,559.933472 208.615829,560.282104 
	C208.503799,563.775757 208.744827,566.920837 209.024811,570.014038 
	C209.063766,569.962219 209.151810,569.867004 209.151810,569.867004 
z"/>
<path fill="#F1F2F4" opacity="1.000000" stroke="none" 
	d="
M769.114502,553.551758 
	C766.342407,553.972961 763.664917,553.939453 760.551392,553.818909 
	C760.115234,550.979614 760.115234,548.227417 760.115234,545.227783 
	C763.376526,545.227783 766.082581,545.227783 769.209229,545.227783 
	C769.209229,547.938293 769.209229,550.517700 769.114502,553.551758 
z"/>
<path fill="#F1F2F4" opacity="1.000000" stroke="none" 
	d="
M760.297852,564.720459 
	C762.864258,564.232544 765.435364,564.177795 768.436768,564.087952 
	C769.031372,566.828430 769.195618,569.604004 769.379456,572.710449 
	C766.399231,572.710449 763.680725,572.710449 760.302551,572.710449 
	C760.302551,570.267700 760.302551,567.710754 760.297852,564.720459 
z"/>
<path fill="#F1F2F4" opacity="1.000000" stroke="none" 
	d="
M217.881744,569.909058 
	C217.835007,572.633911 217.835007,575.407104 217.835007,578.391235 
	C214.867874,578.391235 212.141907,578.391235 209.024796,578.391235 
	C209.024796,575.675781 209.024796,573.225098 209.088303,570.320679 
	C209.151810,569.867004 209.063766,569.962219 209.474487,569.980957 
	C212.593735,570.021057 215.302277,570.042358 218.010803,570.063599 
	C218.010803,570.063599 217.928467,569.957336 217.881744,569.909058 
z"/>
<path fill="#F1F2F4" opacity="1.000000" stroke="none" 
	d="
M770.791687,563.708862 
	C770.227234,561.156616 770.068542,558.497192 769.946106,555.389404 
	C772.740051,554.940918 775.497742,554.940918 778.516602,554.940918 
	C778.516602,557.780518 778.516602,560.330933 778.516602,563.601807 
	C776.019409,563.601807 773.608398,563.601807 770.791687,563.708862 
z"/>
<path fill="#F1F2F4" opacity="1.000000" stroke="none" 
	d="
M759.497131,555.029297 
	C759.885071,557.693787 759.827698,560.239624 759.686646,563.197083 
	C756.977112,563.608704 754.351257,563.608704 751.349548,563.608704 
	C751.349548,560.660461 751.349548,557.983521 751.349548,554.910583 
	C753.883362,554.910583 756.467590,554.910583 759.497131,555.029297 
z"/>
<path fill="#F1F2F4" opacity="1.000000" stroke="none" 
	d="
M209.077148,560.072815 
	C209.114731,557.314453 209.114731,554.510864 209.114731,551.339233 
	C211.823059,551.339233 214.543625,551.339233 217.932922,551.339233 
	C217.932922,553.754822 217.932922,556.473938 217.901642,559.659607 
	C217.870346,560.126099 217.949921,560.034363 217.535156,559.956787 
	C214.403244,559.897339 211.686066,559.915405 208.968903,559.933472 
	C208.968903,559.933472 209.039581,560.027527 209.077148,560.072815 
z"/>
<path fill="#F1F2F4" opacity="1.000000" stroke="none" 
	d="
M626.895569,590.981445 
	C624.311951,590.424988 622.225037,589.827087 619.768066,589.155640 
	C619.377258,586.980530 619.356384,584.878967 619.139038,582.376587 
	C618.942566,581.975708 618.887573,582.058289 618.843689,582.088623 
	C621.757324,582.118896 624.714905,582.118896 628.637024,582.118896 
	C628.206055,585.173035 627.799133,588.056458 626.895569,590.981445 
z"/>
<path fill="#121B46" opacity="1.000000" stroke="none" 
	d="
M163.110046,501.931213 
	C163.359863,505.697327 163.582382,508.993744 163.817886,512.482666 
	C151.641556,512.482666 139.587708,512.482666 127.506935,512.482666 
	C127.506935,497.585754 127.506935,483.042023 127.506935,468.020508 
	C139.263901,468.020508 151.293488,468.020508 163.082764,468.020508 
	C163.082764,479.124573 163.082764,490.293030 163.110046,501.931213 
z"/>
<path fill="#121B46" opacity="1.000000" stroke="none" 
	d="
M569.255127,460.720703 
	C569.741760,459.512390 570.252380,458.083954 570.792969,458.072510 
	C577.889282,457.922668 584.989685,457.972870 592.394043,457.972870 
	C592.394043,467.736420 592.394043,477.076324 592.394043,486.620605 
	C584.707581,486.620605 577.139832,486.620605 569.293091,486.620605 
	C569.293091,477.955536 569.293091,469.557373 569.255127,460.720703 
z"/>
<path fill="#121944" opacity="1.000000" stroke="none" 
	d="
M692.087158,507.589233 
	C690.500916,507.972717 689.031860,507.972717 687.337769,507.972717 
	C687.337769,504.713562 687.337769,501.502014 687.337769,497.965118 
	C690.156433,497.965118 693.106628,497.965118 696.519165,497.890503 
	C696.790588,498.871674 696.627502,500.841522 696.404602,500.848297 
	C691.876343,500.986023 692.775879,504.570831 692.087158,507.589233 
z"/>
<path fill="#121B46" opacity="1.000000" stroke="none" 
	d="
M692.740540,558.099976 
	C693.788818,558.893311 694.841187,559.657104 694.872803,560.461121 
	C695.040405,564.721680 694.951599,568.992249 694.951599,573.562561 
	C690.924377,573.562561 687.212524,573.562561 683.035400,573.562561 
	C683.035400,568.584290 683.035400,563.716309 683.035400,558.088867 
	C686.120483,558.088867 689.197083,558.088867 692.740540,558.099976 
z"/>
<path fill="#121B46" opacity="1.000000" stroke="none" 
	d="
M650.943542,579.725830 
	C651.925537,575.044373 652.917542,570.803223 653.979187,566.264160 
	C654.976013,566.264160 656.219849,566.264160 657.263672,566.264160 
	C658.551086,571.183472 659.796936,575.944092 661.480896,582.378784 
	C657.108276,581.459717 654.030884,580.812927 650.943542,579.725830 
z"/>
<path fill="#121944" opacity="1.000000" stroke="none" 
	d="
M208.615829,560.282104 
	C211.686066,559.915405 214.403244,559.897339 217.571686,559.908325 
	C218.344437,563.172241 218.665924,566.407043 218.499100,569.852783 
	C215.302277,570.042358 212.593735,570.021057 209.435532,570.032837 
	C208.744827,566.920837 208.503799,563.775757 208.615829,560.282104 
z"/>
</svg>